<?xml version="1.0" encoding="UTF-8" standalone="no"?>
<!-- Created with Inkscape (http://www.inkscape.org/) -->

<svg
   xmlns:dc="http://purl.org/dc/elements/1.1/"
   xmlns:cc="http://creativecommons.org/ns#"
   xmlns:rdf="http://www.w3.org/1999/02/22-rdf-syntax-ns#"
   xmlns:svg="http://www.w3.org/2000/svg"
   xmlns="http://www.w3.org/2000/svg"
   xmlns:xlink="http://www.w3.org/1999/xlink"
   xmlns:sodipodi="http://sodipodi.sourceforge.net/DTD/sodipodi-0.dtd"
   xmlns:inkscape="http://www.inkscape.org/namespaces/inkscape"
   width="112.90102mm"
   height="170.81172mm"
   viewBox="0 0 400.043 605.23838"
   id="svg2"
   version="1.1"
   inkscape:version="0.91 r13725"
   sodipodi:docname="Time Arcana.svg"
   inkscape:export-filename="/Users/xavid/Documents/toolate/TimeArcana.png"
   inkscape:export-xdpi="223.0526"
   inkscape:export-ydpi="223.0526">
  <defs
     id="defs4">
    <filter
       x="-0.15"
       width="1.3"
       y="-0.15"
       height="1.3"
       inkscape:menu-tooltip="Felt like texture with color turbulence and slightly darker at the edges"
       inkscape:menu="Textures"
       inkscape:label="Felt"
       style="color-interpolation-filters:sRGB;"
       id="filter4729">
      <feGaussianBlur
         result="result1"
         in="SourceGraphic"
         stdDeviation="2"
         id="feGaussianBlur4731" />
      <feTurbulence
         result="result0"
         numOctaves="5"
         baseFrequency="0.05"
         type="fractalNoise"
         id="feTurbulence4733" />
      <feDisplacementMap
         result="result2"
         scale="20"
         yChannelSelector="G"
         xChannelSelector="R"
         in="result1"
         in2="result0"
         id="feDisplacementMap4735" />
      <feGaussianBlur
         result="result4"
         in="result2"
         stdDeviation="5"
         id="feGaussianBlur4737" />
      <feComposite
         result="result6"
         k1="1"
         k3="1"
         k2="0.5"
         in="result0"
         in2="result4"
         operator="arithmetic"
         id="feComposite4739" />
      <feComposite
         in="result6"
         in2="result0"
         operator="in"
         result="result91"
         id="feComposite4741" />
      <feComposite
         operator="arithmetic"
         k1="1.5"
         in="result2"
         in2="result91"
         id="feComposite4743" />
    </filter>
    <filter
       x="-0.15"
       width="1.3"
       y="-0.15"
       height="1.3"
       inkscape:menu-tooltip="Felt like texture with color turbulence and slightly darker at the edges"
       inkscape:menu="Textures"
       inkscape:label="Felt"
       style="color-interpolation-filters:sRGB;"
       id="filter4747">
      <feGaussianBlur
         result="result1"
         in="SourceGraphic"
         stdDeviation="2"
         id="feGaussianBlur4749" />
      <feTurbulence
         result="result0"
         numOctaves="5"
         baseFrequency="0.05"
         type="fractalNoise"
         id="feTurbulence4751" />
      <feDisplacementMap
         result="result2"
         scale="20"
         yChannelSelector="G"
         xChannelSelector="R"
         in="result1"
         in2="result0"
         id="feDisplacementMap4753" />
      <feGaussianBlur
         result="result4"
         in="result2"
         stdDeviation="5"
         id="feGaussianBlur4755" />
      <feComposite
         result="result6"
         k1="1"
         k3="1"
         k2="0.5"
         in="result0"
         in2="result4"
         operator="arithmetic"
         id="feComposite4757" />
      <feComposite
         in="result6"
         in2="result0"
         operator="in"
         result="result91"
         id="feComposite4759" />
      <feComposite
         operator="arithmetic"
         k1="1.5"
         in="result2"
         in2="result91"
         id="feComposite4761" />
    </filter>
    <filter
       x="-0.15"
       width="1.3"
       y="-0.15"
       height="1.3"
       inkscape:menu-tooltip="Felt like texture with color turbulence and slightly darker at the edges"
       inkscape:menu="Textures"
       inkscape:label="Felt"
       style="color-interpolation-filters:sRGB;"
       id="filter4765">
      <feGaussianBlur
         result="result1"
         in="SourceGraphic"
         stdDeviation="2"
         id="feGaussianBlur4767" />
      <feTurbulence
         result="result0"
         numOctaves="5"
         baseFrequency="0.05"
         type="fractalNoise"
         id="feTurbulence4769" />
      <feDisplacementMap
         result="result2"
         scale="20"
         yChannelSelector="G"
         xChannelSelector="R"
         in="result1"
         in2="result0"
         id="feDisplacementMap4771" />
      <feGaussianBlur
         result="result4"
         in="result2"
         stdDeviation="5"
         id="feGaussianBlur4773" />
      <feComposite
         result="result6"
         k1="1"
         k3="1"
         k2="0.5"
         in="result0"
         in2="result4"
         operator="arithmetic"
         id="feComposite4775" />
      <feComposite
         in="result6"
         in2="result0"
         operator="in"
         result="result91"
         id="feComposite4777" />
      <feComposite
         operator="arithmetic"
         k1="1.5"
         in="result2"
         in2="result91"
         id="feComposite4779" />
    </filter>
  </defs>
  <sodipodi:namedview
     id="base"
     pagecolor="#ffffff"
     bordercolor="#666666"
     borderopacity="1.0"
     inkscape:pageopacity="0.0"
     inkscape:pageshadow="2"
     inkscape:zoom="0.98994949"
     inkscape:cx="144.25663"
     inkscape:cy="306.58984"
     inkscape:document-units="px"
     inkscape:current-layer="layer1"
     showgrid="false"
     inkscape:window-width="1393"
     inkscape:window-height="855"
     inkscape:window-x="0"
     inkscape:window-y="1"
     inkscape:window-maximized="1"
     fit-margin-top="0"
     fit-margin-left="0"
     fit-margin-right="0"
     fit-margin-bottom="0"
     borderlayer="true" />
  <metadata
     id="metadata7">
    <rdf:RDF>
      <cc:Work
         rdf:about="">
        <dc:format>image/svg+xml</dc:format>
        <dc:type
           rdf:resource="http://purl.org/dc/dcmitype/StillImage" />
        <dc:title></dc:title>
      </cc:Work>
    </rdf:RDF>
  </metadata>
  <g
     inkscape:label="Layer 1"
     inkscape:groupmode="layer"
     id="layer1"
     transform="translate(-896.4863,-219.88281)">
    <rect
       style="opacity:1;fill:#b590bb;fill-opacity:1;fill-rule:evenodd;stroke:none;stroke-width:0.5;stroke-miterlimit:4;stroke-dasharray:none;stroke-dashoffset:200;stroke-opacity:1"
       id="rect4414"
       width="385.71429"
       height="296.42856"
       x="902.85712"
       y="226.64792" />
    <rect
       style="opacity:1;fill:#7366b7;fill-opacity:1;fill-rule:evenodd;stroke:none;stroke-width:0.5;stroke-miterlimit:4;stroke-dasharray:none;stroke-dashoffset:200;stroke-opacity:1"
       id="rect4416"
       width="389.28571"
       height="298.57144"
       x="902.14288"
       y="523.07648" />
    <path
       style="opacity:1;fill:#6f73b9;fill-opacity:1;fill-rule:evenodd;stroke:none;stroke-width:0.5;stroke-miterlimit:4;stroke-dasharray:none;stroke-dashoffset:200;stroke-opacity:1"
       d="m 957.14286,720.93363 284.28574,1.42857 0,-332.85714 c -7.0711,-82.83251 -82.0404,-117.67258 -144.2857,-118.57143 -61.4296,-0.88707 -144.70418,53.25815 -145.71433,112.85715 z"
       id="path4420"
       inkscape:connector-curvature="0"
       sodipodi:nodetypes="cccscc" />
    <ellipse
       style="opacity:1;fill:#dbdee3;fill-opacity:1;fill-rule:evenodd;stroke:none;stroke-width:0.5;stroke-miterlimit:4;stroke-dasharray:none;stroke-dashoffset:200;stroke-opacity:1"
       id="path4418"
       cx="1095"
       cy="230.21935"
       rx="92.14286"
       ry="32.142857" />
    <path
       sodipodi:nodetypes="cscsccsscccccccccccccscsccscccccscscscsccccccsccccccccscscsssssssccccccssccccccsccccccscsssssccscccccccccccccccccccccsscc"
       inkscape:connector-curvature="0"
       id="path4422"
       d="m 957.51952,680.88495 c 2.92782,-1.43355 2.87234,-1.22001 2.80519,-10.7982 -0.032,-4.56672 -0.10716,-17.88813 -0.16699,-29.60313 -0.0846,-16.56513 -0.19409,-21.45636 -0.49254,-22.00338 -0.58464,-1.0716 -3.28768,-2.16684 -5.82045,-2.35839 l -2.18222,-0.16503 -0.94452,1.07574 c -0.60726,0.69165 -1.01196,1.53552 -1.13342,2.3634 -0.1039,0.70821 -0.10118,7.63266 0.006,15.38766 0.24068,17.40741 0.24018,19.89465 -0.005,26.85 -0.10777,3.0525 -0.0849,6.765 0.0509,8.25 0.13854,1.5156 0.1283,3.55584 -0.0233,4.65102 -0.47535,3.43281 0.38147,6.17025 2.22916,7.12188 1.0662,0.54915 3.71556,0.18909 5.67759,-0.77157 z m 289.65758,0.85803 c 0.6686,-1.08183 1.0598,-14.60361 0.6946,-24.00936 -0.1656,-4.26648 -0.1545,-7.37565 0.03,-8.45046 0.1867,-1.08621 0.1895,-2.38659 0.01,-3.6 -0.1871,-1.24923 -0.1642,-4.41579 0.067,-9.24954 0.2712,-5.67711 0.269,-8.47665 -0.01,-12.3 -0.4555,-6.25134 -0.5232,-6.56652 -1.4985,-6.96888 -1.2548,-0.51771 -6.3021,-0.43995 -7.5543,0.11637 -0.9438,0.41931 -1.1094,0.66309 -1.4184,2.08863 -0.8496,3.91989 -0.9282,6.59163 -0.9443,32.11443 l -0.017,26.60052 1.199,0.94968 c 0.8949,0.70869 1.1991,1.16604 1.1991,1.80246 0,0.55992 0.1803,0.89991 0.525,0.99 1.043,0.27255 7.5425,0.20199 7.7192,-0.0838 z M 992.25267,652.94181 c 1.12609,-0.68661 1.43722,-1.57449 1.42208,-4.05819 -0.008,-1.29864 -0.23309,-2.28048 -0.80841,-3.525 l -0.79742,-1.725 -2.82183,0 c -3.99571,0 -4.59525,0.26277 -5.01653,2.1987 -0.18568,0.8532 -0.29422,2.8338 -0.24121,4.4013 l 0.0964,2.85 1.05,0.18552 c 0.5775,0.10203 2.1975,0.20277 3.6,0.22386 2.0532,0.0309 2.73838,-0.0765 3.51695,-0.55119 z m 221.11363,-0.0832 c 0.6511,-0.80295 1.35,-3.4596 1.3614,-5.175 0.013,-1.97355 -0.459,-3.15525 -1.7377,-4.35 -0.7317,-0.68376 -1.0386,-0.75 -3.4741,-0.75 l -2.6714,0 -1.2794,1.27866 -1.2794,1.27866 -0.1009,3.27192 c -0.098,3.168 -0.079,3.28416 0.6,3.6573 1.8304,1.00638 7.9489,1.56855 8.5815,0.78846 z M 958.97074,458.00862 c 1.24479,-2.91312 1.38437,-3.93333 1.3237,-9.675 -0.0323,-3.0525 -0.1741,-6.495 -0.31522,-7.65 -0.14864,-1.21658 -0.13671,-3.74063 0.0283,-6 0.15672,-2.145 0.20299,-6.36859 0.10282,-9.38576 -0.10302,-3.10315 -0.0401,-7.29269 0.14477,-9.64611 0.35533,-4.5224 0.0519,-11.33423 -0.78042,-17.52117 -0.57351,-4.26302 -0.71874,-4.58759 -2.23546,-4.996 -1.49908,-0.40366 -8.06033,0.34583 -8.44642,0.96483 -0.49954,0.80089 -0.61685,3.05338 -0.2979,5.72001 0.39522,3.30427 0.53304,16.49404 0.2295,21.9642 -0.11902,2.145 -0.27821,9.5025 -0.35375,16.35 -0.1471,13.33425 0.0479,16.06083 1.4086,19.69767 l 0.59951,1.60233 3.9915,0 3.9915,0 0.60891,-1.425 z m 288.77206,0.45 c 0.4057,-0.53625 0.8727,-1.515 1.0379,-2.175 0.1947,-0.77778 0.2329,-7.53345 0.1086,-19.2 -0.1054,-9.9 -0.1534,-22.86 -0.1066,-28.8 0.047,-5.94 0,-11.91375 -0.1078,-13.275 l -0.193,-2.475 -5.3323,0 -5.3323,0 -0.2384,3.525 c -0.1312,1.93875 -0.2508,12.165 -0.2658,22.725 -0.015,10.56 -0.1254,19.35063 -0.2452,19.53473 -0.2312,0.35523 0.2004,15.26509 0.5482,18.94027 l 0.2058,2.175 4.5916,0 4.5917,0 z m -256.91321,-28.2 c 1.97839,-1.01091 2.52558,-1.95086 2.6576,-4.56519 0.13612,-2.69565 -0.24391,-3.94401 -1.6011,-5.25945 -0.77697,-0.75308 -1.43627,-1.07051 -2.61935,-1.26115 -2.26003,-0.36418 -2.80001,-0.31824 -4.10907,0.34959 -3.0646,1.56344 -3.82081,5.11424 -1.83111,8.59808 1.52983,2.67862 4.6854,3.57786 7.50303,2.13812 z m 221.71081,0.1278 c 2.2478,-1.17667 3.0152,-4.55909 1.6832,-7.41948 -2.1008,-4.51159 -8.082,-5.81499 -10.4895,-2.28584 -1.5449,2.26462 -1.6891,4.58121 -0.4473,7.18755 0.601,1.26162 1.8716,2.18076 3.8489,2.78443 1.4593,0.44549 4.3133,0.30468 5.4047,-0.26666 z m -105.3925,-146.8243 c -0.072,-0.37318 -0.1332,-0.1385 -0.1365,0.5215 0,0.66 0.055,0.96532 0.1304,0.6785 0.075,-0.28683 0.078,-0.82683 0.01,-1.2 z m -23.0969,-1.34937 c -0.069,-0.45602 -0.1272,-0.15413 -0.1295,0.67087 0,0.825 0.054,1.19811 0.1254,0.82913 0.071,-0.36899 0.073,-1.04399 0,-1.5 z m 25.0861,-2.19844 c 0.5217,-0.31815 0.7902,-0.57895 0.5966,-0.57957 -0.4942,-10e-4 -2.1999,1.47943 -2.1889,1.90055 0,0.19158 0.1519,0.10289 0.3264,-0.1971 0.1745,-0.29998 0.7441,-0.80573 1.2659,-1.12388 z m -25.4049,0.18225 c -0.098,-0.25462 -0.3506,-0.45228 -0.5621,-0.43926 -0.3011,0.0185 -0.3031,0.0565 -0.01,0.175 0.2063,0.0832 0.375,0.36507 0.375,0.62632 0,0.26125 0.084,0.39082 0.1871,0.28794 0.1029,-0.10289 0.1071,-0.39538 0.01,-0.65 z"
       style="fill:#bdbdbd;fill-opacity:1" />
    <path
       sodipodi:nodetypes="ccccccsccscscssccccccccccccccccccssccc"
       inkscape:connector-curvature="0"
       id="path4424"
       d="m 1094.3136,631.18362 c -0.01,4.02402 -0.4194,6.0888 -0.3486,42.375 l 0.082,42.075 2.286,0 2.286,0 -0.2294,-3.225 -10e-5,0 c -0.1262,-1.77375 -0.3143,-20.64 -0.4181,-41.925 -0.1731,-35.52597 -0.2304,-38.79228 -0.6983,-39.825 l 1.4456,-244.74008 c -0.111,-2.10261 -0.2,-27.04334 -0.1978,-55.42386 0,-46.5328 -0.042,-51.61863 -0.4651,-51.781 -0.2581,-0.099 -1.204,-0.18006 -2.1021,-0.18006 -1.4933,0 -1.664,0.0705 -1.9961,0.825 -0.5062,1.15006 0.01,101.16938 0.1124,110.36638 0.1671,14.82273 0.2701,225.57759 0.2435,241.45862 z m 12.8343,-347.6215 c -0.072,-0.37318 -0.1332,-0.1385 -0.1365,0.5215 0,0.66 0.055,0.96532 0.1304,0.6785 0.075,-0.28683 0.078,-0.82683 0.01,-1.2 z m -23.0969,-1.34937 c -0.069,-0.45602 -0.1272,-0.15413 -0.1295,0.67087 0,0.825 0.054,1.19811 0.1254,0.82913 0.071,-0.36899 0.073,-1.04399 0,-1.5 z m 25.0861,-2.19844 c 0.5217,-0.31815 0.7902,-0.57895 0.5966,-0.57957 -0.4942,-10e-4 -2.1999,1.47943 -2.1889,1.90055 0,0.19158 0.1519,0.10289 0.3264,-0.1971 0.1745,-0.29998 0.7441,-0.80573 1.2659,-1.12388 z m -25.4049,0.18225 c -0.098,-0.25462 -0.3506,-0.45228 -0.5621,-0.43926 -0.3011,0.0185 -0.3031,0.0565 -0.01,0.175 0.2063,0.0832 0.375,0.36507 0.375,0.62632 0,0.26125 0.084,0.39082 0.1871,0.28794 0.1029,-0.10289 0.1071,-0.39538 0.01,-0.65 z"
       style="fill:#ffffff;fill-opacity:1" />
    <path
       inkscape:connector-curvature="0"
       id="path4675"
       d="m 1022.0608,382.28273 149.6777,0 c -1.3346,23.4342 -10.1826,41.18634 -23.5575,56.99059 -13.6047,16.07579 -32.0122,29.91719 -51.126,44.18331 -19.2355,-14.34087 -37.7974,-28.19754 -51.4889,-44.33866 -13.3412,-15.72808 -22.1729,-33.41302 -23.5053,-56.83524 z m 74.9915,118.36054 c 18.9499,14.26554 37.2083,28.93116 50.8059,46.83772 13.5422,17.83342 22.6023,38.80439 23.7691,66.6707 l -150.3473,0 c 1.3313,-27.58875 10.5057,-48.4244 24.1468,-66.20599 13.8401,-18.04103 32.4082,-32.85077 51.6255,-47.30243 z"
       style="color:#000000;font-style:normal;font-variant:normal;font-weight:normal;font-stretch:normal;font-size:medium;line-height:normal;font-family:sans-serif;text-indent:0;text-align:start;text-decoration:none;text-decoration-line:none;text-decoration-style:solid;text-decoration-color:#000000;letter-spacing:normal;word-spacing:normal;text-transform:none;direction:ltr;block-progression:tb;writing-mode:lr-tb;baseline-shift:baseline;text-anchor:start;white-space:normal;clip-rule:nonzero;display:inline;overflow:visible;visibility:visible;opacity:1;isolation:auto;mix-blend-mode:normal;color-interpolation:sRGB;color-interpolation-filters:linearRGB;solid-color:#000000;solid-opacity:1;fill:#89b37e;fill-opacity:1;fill-rule:nonzero;stroke:none;stroke-width:20;stroke-linecap:butt;stroke-linejoin:miter;stroke-miterlimit:4;stroke-dasharray:none;stroke-dashoffset:0;stroke-opacity:1;color-rendering:auto;image-rendering:auto;shape-rendering:auto;text-rendering:auto;enable-background:accumulate"
       sodipodi:nodetypes="ccscsccsccsc" />
    <path
       sodipodi:nodetypes="ccccccccccccccccccccccccccc"
       inkscape:connector-curvature="0"
       d="M 1330.6179,241.39045 C 1214.0791,321.46503 942.92545,597.5491 887.59755,692.6064 c 0,0 162.32775,183.62212 212.25945,260.34811 50.8564,-80.42363 150.97,-208.56816 201.1606,-253.40456 C 1282.9277,633.84294 975.25355,313.62696 869.23485,247.86472 857.10745,-138.95899 1389.1894,64.247593 1330.6179,241.39045 Z m 35.1684,292.45683 C 1306.608,424.76679 1166.9424,218.8112 1097.083,199.19588 988.36855,259.77526 900.17625,408.37495 826.20335,533.17027 c 0,0 256.54635,373.93144 271.47745,387.63902 7.3973,-10.16863 261.1842,-378.45396 268.1056,-386.96201 z m -39.3926,296.64199 C 1172.8951,698.71902 913.63135,421.89792 885.56385,365.84731 L 994.66655,234.1705 C 1154.1445,286.2115 1246.7758,471.61769 1289.9641,527.62391 1271.0029,585.79933 1111.644,762.89373 1093.161,767.20247 1021.9723,710.50009 900.76465,529.98144 900.76465,529.98144 1031.142,334.93095 1102.945,270.35718 1189.7015,230.05711 c 32.2638,26.29923 113.8617,133.20492 113.8617,133.20492 -39.2765,92.41318 -387.79755,427.6548 -436.18125,462.29842 -12.8572,100 323.08645,639.07405 459.01175,4.92882 z M 803.07985,39.790755 l 598.91235,0 0,985.714245 -598.91235,0 z"
       style="opacity:0.3;fill:#15298a;fill-opacity:1;fill-rule:evenodd;stroke:none;stroke-width:0.5;stroke-miterlimit:4;stroke-dasharray:none;stroke-dashoffset:200;stroke-opacity:1"
       id="path4412" />
    <path
       inkscape:connector-curvature="0"
       d="m -456.56591,625.40957 c 0,0 74.64286,-79.28572 85.35715,-111.78572 m -37.85715,144.28572 c 0,0 11.07143,-18.57143 37.14286,-43.21429 m -47.85714,32.14286 c 0,0 43.92857,-65.35715 48.57143,-69.64286 m -213.21429,-61.42857 c 0,0 69.28572,-107.14286 118.57143,-140 m 93.92857,139.28571 c 0,0 -69.28571,-113.92857 -115,-136.78571 m 115.71429,37.14285 c 0,0 -37.5,-49.28571 -55,-63.92857 m 54.28571,98.21429 c 0,0 -47.14286,-74.28572 -77.85714,-95.71429 m -133.57143,60.71429 50,-60.71429 m -49.28571,95 c 0,0 41.78571,-67.85714 78.57142,-94.28571 m -78.17095,237.04569 c 6.46139,-21.51959 147.37129,-173.65193 211.0281,-217.40283 m -175,248.92856 c 26.42857,-18.92857 156.07143,-145.71428 175,-186.07142 m -211.07143,177.5 37.5,43.57143 m -37.5,-78.57143 c 0,0 45,65.71429 47.85714,67.14286 m -49.46923,-131.35225 c 0,0 52.02285,77.78175 82.32743,107.58125 M -582.88213,438.7143 c 0,0 81.82236,112.12693 174.25132,183.34268 M -581.87198,377.09499 c 57.91045,35.93097 198.74752,182.97359 210.11173,215.16249"
       style="opacity:1;fill:none;fill-opacity:1;stroke:#000000;stroke-width:0.5;stroke-miterlimit:4;stroke-dasharray:none;stroke-dashoffset:200;stroke-opacity:1"
       id="path3563" />
    <image
       sodipodi:absref="/Users/xavid/Downloads/persona_tarot_card_hd___death_by_ipswich67-d4thlg6.png"
       y="145.93362"
       x="128.03572"
       id="image3414"
       xlink:href="file:///Users/xavid/Downloads/persona_tarot_card_hd___death_by_ipswich67-d4thlg6.png"
       preserveAspectRatio="none"
       height="750"
       width="532.5" />
    <path
       style="fill:#000000"
       d="m 896.48633,219.88281 c 0,0 0.0379,136.11273 0.0859,302.47071 l 0.0879,302.46875 6.36328,0.0859 c 14.48545,0.19845 38.86387,0.21314 48.17383,0.0274 l 9.95703,-0.19922 1.28906,-2.29297 c 0.70918,-1.26111 1.96833,-3.71279 2.79687,-5.44727 0.82853,-1.73445 2.37653,-4.56177 3.43946,-6.2832 1.06293,-1.7214 3.38676,-5.5593 5.16406,-8.5293 7.80233,-13.03833 16.68373,-23.8982 28.91608,-35.35547 6.9743,-6.53238 9.6312,-8.83637 13.8359,-12 19.3527,-14.56101 42.2645,-23.85426 66.0684,-26.79687 5.4202,-0.67002 20.4305,-0.75696 25.9218,-0.15039 27.1898,3.00339 52.516,13.77085 73.8008,31.375 6.1109,5.05422 18.7135,17.81251 24.4746,24.77734 4.0327,4.87536 8.5043,11.31165 13.1309,18.90039 4.5014,7.38339 5.4568,9.08494 8.7129,15.50977 l 3.0683,6.05664 1.5586,0.34766 c 1.1458,0.25635 9.6319,0.32048 32.0567,0.24218 16.7738,-0.0586 30.5578,-0.17336 30.6308,-0.25586 0.073,-0.0825 0.2169,-136.19179 0.3203,-302.46484 l 0.1895,-302.31445 -200.0215,-0.0859 c -110.01182,-0.047 -200.0215,-0.0859 -200.0215,-0.0859 z m 36.59961,9.95117 c 0.0965,0.005 0.15039,0.0256 0.15039,0.0645 0,0.11688 -0.55224,0.7462 -1.22656,1.39844 -0.67431,0.65224 -2.25348,2.46002 -3.50977,4.01562 -3.34354,4.14014 -5.49244,6.33727 -7.35352,7.52148 -1.09453,0.69646 -1.70053,1.30136 -1.80273,1.79883 -0.0848,0.4125 -0.10191,0.8055 -0.0371,0.8711 0.18482,0.18715 6.42864,-0.55325 7.92383,-0.93946 0.73923,-0.19094 2.15517,-0.91134 3.14844,-1.60156 4.58566,-3.18657 11.23835,-5.34493 18.5,-6 2.03753,-0.18381 2.5217,-0.1189 4.34961,0.57422 3.21064,1.21744 5.70238,1.68641 8.96875,1.69141 4.61047,0.007 7.28811,-0.86323 10.63867,-3.45704 3.05643,-2.36611 6.56422,-3.62331 9.44922,-3.38671 l 1.20117,0.0996 -0.10547,1.45507 c -0.0982,1.3665 -0.24628,1.59696 -2.41406,3.75 -1.27035,1.26172 -3.4491,3.56504 -4.8418,5.11719 -1.39269,1.55215 -4.22076,4.27554 -6.28516,6.05274 -4.6868,4.03476 -6.44952,6.10841 -7.3457,8.64843 l -0.39844,1.13281 1.42383,-0.25781 c 0.78394,-0.14249 3.0326,-0.80847 4.99609,-1.47851 1.9635,-0.67005 4.28693,-1.29517 5.16211,-1.38868 1.45417,-0.15533 1.60591,-0.24246 1.76172,-1.02148 0.15862,-0.7931 0.42362,-0.93581 3.8086,-2.03516 5.38811,-1.74993 14.94686,-4.06485 15.30468,-3.70703 0.3403,0.3403 -0.66866,2.53711 -5.55273,12.08203 -1.30129,2.54312 -2.45228,5.25649 -2.77148,6.53321 -0.32501,1.29993 -0.8646,2.56166 -1.33204,3.11719 -1.53328,1.8222 -4.48223,2.82588 -13.11132,4.45898 -3.47286,0.65725 -3.96512,0.88641 -8.67383,4.04102 -1.23143,0.825 -2.24751,1.71874 -2.25781,1.98632 -0.0103,0.26758 -0.68502,1.50744 -1.5,2.75586 -2.28119,3.49443 -2.48823,4.32754 -2.62891,10.55664 -0.0866,3.83638 -0.29062,6.17773 -0.70508,8.08594 -0.80601,3.7109 -0.78166,4.36524 0.16602,4.36524 0.51882,0 0.75,-0.16614 0.75,-0.53516 0,-0.8753 1.86847,-4.50136 4.07812,-7.91406 1.13913,-1.75933 2.5436,-4.04168 3.1211,-5.07227 1.46906,-2.62163 3.42677,-4.69546 5.38281,-5.70312 4.93364,-2.54159 5.1801,-2.6253 9.46875,-3.24024 7.30115,-1.0469 13.86367,-3.54319 16.65429,-6.33203 1.09512,-1.0944 1.5986,-1.98814 2.61719,-4.65625 1.61815,-4.23863 2.58758,-5.7363 4.61518,-7.13281 2.3392,-1.61105 5.8467,-2.99812 6.584,-2.60352 1.5575,0.83352 0.8035,3.51775 -1.7929,6.38281 -0.9495,1.04774 -2.5545,3.10884 -3.5664,4.58008 -1.0118,1.47124 -2.5734,3.51203 -3.4707,4.53516 -1.28075,1.46029 -1.80618,2.38155 -2.43949,4.2832 -0.65338,1.96191 -1.02245,2.59587 -1.94336,3.33594 -1.39806,1.12351 -2.2683,3.62664 -1.76367,5.07422 l 0.30859,0.88086 2.20899,-1.49219 c 3.28724,-2.21827 8.37804,-5.24943 16.46094,-9.80469 3.9751,-2.24028 8.6444,-5.07909 10.3769,-6.30859 4.3321,-3.07437 6.9304,-4.54975 9.75,-5.5332 3.1203,-1.0883 3.5766,-1.09303 3.3125,-0.041 -0.3281,1.30747 -2.9655,6.44086 -4.2968,8.36328 -2.3845,3.44326 -4.555,5.38606 -7.8653,7.03516 -1.0725,0.53429 -2.5583,1.40744 -3.3008,1.9414 -0.7425,0.53397 -3.9817,2.56308 -7.1992,4.50977 -6.695,4.05073 -8.8112,5.50274 -11.5117,7.89453 -1.0573,0.93647 -2.90662,2.31023 -4.10936,3.05274 -1.46245,0.90282 -4.01692,3.13866 -7.71093,6.75 -4.9858,4.8742 -8.97026,8.20858 -9.84375,8.23828 -0.17863,0.006 -0.75738,0.5498 -1.28711,1.20898 -0.52973,0.65918 -2.05875,2.08205 -3.39649,3.16211 -1.61852,1.30677 -2.68278,2.43687 -3.18164,3.37695 -0.41233,0.777 -1.09469,1.88539 -1.51758,2.46289 -1.58752,2.16792 -6.50692,8.00817 -8.01562,9.51563 -1.87414,1.87261 -3.60174,4.43531 -6.11914,9.08398 -1.02757,1.8975 -2.37922,4.21858 -3.00391,5.15821 -0.6247,0.93963 -1.3035,2.42541 -1.50976,3.30078 -0.20626,0.87537 -1.16646,4.20506 -2.13282,7.39843 -2.0436,6.75316 -3.79866,14.98032 -4.04882,18.98633 -0.0964,1.54364 -0.21182,14.14586 -0.25782,28.00586 -0.046,13.86 -0.17952,34.24578 -0.29687,45.30078 -0.14702,13.85043 -0.10821,21.77898 0.125,25.5 0.18615,2.97 0.39951,10.32711 0.47461,16.34961 0.0751,6.0225 0.18599,13.75679 0.24609,17.1875 l 0.10938,6.23828 -0.7461,0.5879 c -0.72402,0.56964 -1.34157,0.58593 -20.36523,0.58593 -16.12996,0 -19.6465,-0.0715 -19.77344,-0.40234 -0.35426,-0.92319 -0.61725,-10.7306 -0.45898,-17.14649 0.0936,-3.795 0.14097,-7.77711 0.10547,-8.8496 -0.12052,-3.64299 -0.07,-127.75915 0.0684,-167.70118 0.0757,-21.8625 0.0309,-46.97133 -0.0996,-55.79882 -0.25721,-17.40228 -0.14646,-19.44477 1.2207,-22.50391 1.15144,-2.57648 3.63639,-4.89299 10.28711,-9.59375 1.485,-1.0496 3.38805,-2.54893 4.23047,-3.33203 1.79481,-1.6684 4.14457,-3.19764 6.31836,-4.11328 1.57473,-0.66331 4.3754,-1.39368 5.05078,-1.35743 z m 297.79106,2.54688 c 4.6792,0.0292 6.2397,0.93425 9.3418,3.81055 2.1609,2.00374 2.328,2.09444 4.9023,2.69531 4.1857,0.97694 8.9415,1.33514 14.8144,1.11719 7.5126,-0.2788 7.5276,-0.2807 8.3497,-1.70899 0.8336,-1.44842 2.2413,-2.35837 3.6503,-2.35937 2.1231,-0.002 7.3744,2.49741 11.125,5.29492 l 2.2754,1.69726 0.2481,66.47852 c 0.1358,36.56296 0.268,72.41773 0.293,79.67773 0.025,7.26 0.1589,39.34128 0.2968,71.29102 l 0.25,58.08984 -12.4179,0.1875 0,0 c -6.8305,0.10359 -13.7001,0.23271 -15.2676,0.28711 -1.5675,0.0545 -3.8918,0.0478 -5.164,-0.0156 -2.0614,-0.10266 -2.3794,-0.2003 -2.9239,-0.89258 -1.1063,-1.40631 -1.3229,-2.93566 -0.8867,-6.24805 0.2854,-2.16792 0.4066,-8.11659 0.4356,-21.44922 0.026,-11.86242 0.1663,-19.62828 0.3945,-21.75 0.4467,-4.15398 0.4589,-5.34828 0.2578,-24.15039 -0.094,-8.77818 -0.033,-18.30088 0.1406,-22.05078 0.1676,-3.63 0.28,-10.98711 0.25,-16.34961 -0.058,-10.47663 -0.3502,-14.08993 -2.08,-25.66797 -0.4916,-3.29005 -1.0307,-7.08196 -1.1973,-8.42773 -0.1667,-1.34577 -1.1921,-5.46366 -2.2793,-9.15039 -3.3733,-11.43839 -5.1994,-16.37217 -8.7012,-23.52149 -1.9815,-4.04533 -3.4236,-6.41322 -9.4062,-15.42968 -2.0493,-3.08849 -4.5213,-5.7515 -8.5528,-9.21485 -1.6704,-1.435 -4.0496,-3.55981 -5.2871,-4.72265 -1.928,-1.81173 -6.1356,-5.21934 -9.3672,-7.58789 -0.5056,-0.37054 -2.364,-1.99211 -4.1308,-3.60157 -2.6621,-2.425 -4.0294,-3.38306 -7.9824,-5.5957 -2.6236,-1.46851 -7.0661,-4.04903 -9.8711,-5.73437 -6.479,-3.89278 -6.6978,-4.00143 -11.5489,-5.69141 -2.2275,-0.77601 -4.8596,-1.83552 -5.8496,-2.35547 -4.385,-2.30304 -7.8105,-7.87465 -5.9023,-9.60156 0.8768,-0.79343 1.5423,-0.60151 4.2969,1.24609 1.4271,0.95713 3.1805,1.92651 3.8984,2.1543 0.7181,0.22779 5.4245,2.93384 10.457,6.01367 9.4189,5.76422 18.5865,11.21115 20.6075,12.24219 0.6312,0.32202 1.9571,0.67326 2.9453,0.78125 0.9883,0.10799 2.0995,0.26089 2.4707,0.33789 0.9183,0.19037 0.8614,-0.18792 -0.4102,-2.6875 -2.0995,-4.12694 -6.1581,-9.32045 -8.332,-10.66406 -0.552,-0.34112 -1.3917,-0.62677 -1.8672,-0.63477 -0.7684,-0.0127 -1.216,-0.51355 -4.0156,-4.49414 -3.2535,-4.62612 -5.8854,-8.99266 -6.0528,-10.04101 -0.085,-0.53089 0.056,-0.59317 1.2227,-0.53907 1.8005,0.0835 3.8793,1.17294 7.0801,3.71094 4.5635,3.61844 5.172,3.92166 9.9004,4.92578 8.3999,1.78382 6.949,0.84407 15.6562,10.12891 1.8195,1.94014 4.1183,4.07275 5.1094,4.73828 1.6248,1.09099 2.2864,1.30897 6.7187,2.21484 4.448,0.9091 13.6646,2.17137 13.9278,1.90821 0.058,-0.0586 0.2326,-0.67295 0.3886,-1.36719 0.3285,-1.46216 0.4765,-1.33405 -4.3574,-3.80469 -1.5159,-0.77482 -3.3588,-1.93928 -4.0957,-2.58789 -0.7369,-0.64861 -1.4229,-1.17969 -1.5254,-1.17969 -0.6827,0 -4.377,-2.78895 -5.9648,-4.5039 -1.7594,-1.9003 -2.6869,-3.45223 -4.6914,-7.83789 -0.3636,-0.79545 -1.9734,-2.81731 -3.7539,-4.7168 -1.714,-1.82855 -3.1979,-3.58021 -3.2969,-3.89258 -0.147,-0.46281 -0.7746,-0.66547 -3.3965,-1.09375 -6.1673,-1.0074 -8.7247,-1.60008 -10.3164,-2.39453 -1.8073,-0.90208 -3.6712,-2.56909 -4.373,-3.91016 -0.259,-0.495 -1.0232,-1.48002 -1.6993,-2.18945 -2.4046,-2.52302 -3.2684,-5.02844 -2.1269,-6.16992 0.4035,-0.40354 0.6717,-0.37897 2.4746,0.23437 2.4414,0.83056 4.919,2.05803 5.4512,2.69922 0.8347,1.00581 2.4522,1.69441 5.0078,2.13477 3.9858,0.68678 9.2056,2.14184 12.4336,3.46484 1.5787,0.64706 3.1502,1.17578 3.4922,1.17578 0.3419,0 1.9221,0.3375 3.5097,0.75 3.9788,1.03378 4.0005,1.03222 4.2481,-0.61914 0.1839,-1.22607 0.1292,-1.42217 -0.5078,-1.85351 -0.3917,-0.26522 -2.67,-2.39456 -5.0625,-4.73243 -3.1364,-3.06485 -4.9351,-4.57475 -6.4493,-5.41211 -2.6246,-1.45145 -4.7749,-3.56937 -5.6972,-5.61132 -1.0977,-2.43017 -1.078,-2.63512 0.2968,-3.13477 2.5462,-0.92538 6.8245,-1.59113 12.3008,-1.91601 2.4258,-0.14391 4.3309,-0.23241 5.8907,-0.22266 z m -181.2422,0.73633 c 1.5675,0.0182 13.0425,0.11678 25.5,0.21875 12.4575,0.10196 28.1861,0.25494 34.9511,0.33984 6.765,0.0849 21.1127,0.15525 31.8848,0.15625 22.6446,0.002 20.5627,-0.46121 16.4922,3.66211 -2.9858,3.02467 -6.2687,5.47405 -10.5723,7.88867 -1.7645,0.99 -3.3799,1.96125 -3.5898,2.15625 -0.2098,0.195 -3.4034,1.83771 -7.0977,3.65235 -13.465,6.61401 -21.7548,9.2083 -32.6679,10.2207 -4.026,0.37346 -10.8328,0.36487 -13.1993,-0.0156 -0.9075,-0.14592 -3.4736,-0.55039 -5.7011,-0.89843 -7.7526,-1.21131 -17.1666,-3.92205 -24.5801,-7.08008 -8.6,-3.66342 -18.6517,-9.65839 -23.0957,-13.77344 -2.2315,-2.06626 -5.1231,-5.33056 -5.1231,-5.7832 0,-0.26072 12.136,-0.79824 16.7989,-0.74414 z m 46.3183,45.41601 c 0.8981,0 1.8454,0.0807 2.1035,0.17969 0.4231,0.16237 0.4649,5.24845 0.4649,51.78125 0,23.73776 0.061,44.21483 0.1465,51.78906 l 9.1582,0 c 0,-2.70685 -0.01,-6.58593 -0.01,-6.58593 -0.01,-7.4874 0.131,-16.57552 0.3086,-20.19532 0.182,-3.61981 0.2549,-8.47863 0.1719,-10.79883 -0.083,-2.32019 -0.2899,-15.42414 -0.461,-29.11914 -0.1711,-13.695 -0.3694,-25.91289 -0.4394,-27.15039 -0.07,-1.2375 -0.063,-2.09287 0.018,-1.90039 0.091,0.21587 1.0331,-0.28829 2.457,-1.3164 2.9923,-2.16071 6.1237,-3.64472 8.5742,-4.06446 2.3776,-0.40727 3.0067,-0.23841 10.834,2.92774 2.97,1.20137 6.3723,2.40335 7.5606,2.66992 4.689,1.05204 9.7526,2.93138 18.0878,6.71289 2.5575,1.16029 5.9325,2.67433 7.5,3.36523 2.679,1.18084 9.8612,5.2944 11.8536,6.78907 0.4959,0.372 2.3581,1.48831 4.1386,2.48242 1.7804,0.99411 4.0062,2.35912 4.9473,3.03125 0.9412,0.67212 2.9571,2.06167 4.4785,3.08789 1.5215,1.02621 3.5465,2.44813 4.5,3.16016 0.9536,0.71202 3.1077,2.26583 4.7871,3.45312 5.8167,4.11218 10.2291,8.3971 13.2637,12.88086 0.5319,0.786 1.6502,2.06811 2.4863,2.84961 0.8362,0.7815 2.1427,2.29859 2.9024,3.37109 0.7597,1.0725 2.3278,3.23234 3.4863,4.80079 1.1584,1.56844 2.8503,4.25049 3.7578,5.95898 0.9075,1.7085 2.5213,4.40748 3.5859,5.99805 2.2199,3.31658 3.6489,7.02654 7.0899,18.40234 1.0181,3.36564 2.1527,19.58595 1.7539,25.06445 -0.1751,2.40442 -0.2732,2.77539 -0.7441,2.77539 -0.3352,0 -0.5817,0.25947 -0.6407,0.67579 -0.085,0.60171 -0.3466,0.70717 -2.4043,0.9746 -1.8617,0.24196 -2.4705,0.45567 -3.1504,1.10938 l -0.8437,0.81055 0.2637,3.08984 c 0.2885,3.39271 0.028,5.00235 -1.0274,6.34375 -0.8184,1.04041 -2.7498,1.56023 -4.1894,1.12891 -1.796,-0.5381 -2.4009,-1.48197 -3.418,-5.33594 l -0.9258,-3.50977 -1.5,-0.53125 c -3.1402,-1.11266 -7.0075,-0.57814 -11.6289,1.60547 -2.3027,1.08799 -2.9932,1.61705 -5.5664,4.26563 -2.6973,2.77642 -3.0325,3.25597 -4.1133,5.87304 -1.1686,2.83033 -1.1736,2.87835 -1.1836,6.90039 0,3.62904 0.099,4.45459 1,7.94922 1.2068,4.68146 1.3745,5.03252 3.2754,6.81055 1.857,1.73704 3.6312,2.636 7.2656,3.68555 2.6964,0.77867 3.0687,0.81314 6.9004,0.6289 2.2275,-0.1071 4.5522,-0.32966 5.166,-0.49414 0.9778,-0.26205 1.1565,-0.45523 1.4415,-1.56445 1.1341,-4.4134 1.7361,-5.30255 3.5937,-5.31055 2.2419,-0.01 3.8754,2.46634 4.5957,6.96485 0.5949,3.71509 1.0372,4.11692 4.8438,4.40039 l 2.4101,0.17968 0.3945,1.5 c 0.2859,1.08324 0.3523,2.83248 0.2364,6.29883 -0.2327,6.95823 -0.5621,19.16143 -0.5821,21.60157 -0.01,1.15499 0.1794,5.4746 0.418,9.5996 0.6126,10.58799 0.5503,134.47266 -0.068,136.79883 l -0.3984,1.5 -3.3008,1.65039 c -3.8902,1.94508 -3.8659,1.90597 -4.1953,7.12696 -0.1977,3.13314 -0.2687,3.41934 -0.9746,3.97461 -0.8722,0.68604 -3.452,0.82682 -4.7051,0.25585 -0.7759,-0.35352 -1.1168,-1.17383 -2.5586,-6.14843 -0.733,-2.52888 -0.4044,-2.39424 -6.6269,-2.69531 l -4.0606,-0.19727 -3.2558,1.41797 c -1.7908,0.77973 -3.6765,1.48932 -4.1895,1.57812 -0.9868,0.17073 -2.1473,1.51041 -5.0371,5.8125 -1.7093,2.5446 -1.8965,3.57601 -1.8965,10.48438 l 0,4.95703 1.5762,3.10156 c 0.8663,1.70568 1.5742,3.34664 1.5742,3.64649 0,1.34355 4.7254,3.52122 11.2676,5.19336 4.4044,1.12578 5.3201,1.27173 6.7402,1.07031 0.9039,-0.12822 1.8685,-0.24386 2.1446,-0.25586 0.9914,-0.0433 2.21,-1.4273 2.6015,-2.95508 0.3809,-1.48614 1.3094,-2.63913 2.7032,-3.35742 0.9671,-0.49836 2.6465,-0.13708 3.1855,0.68555 0.4102,0.6261 1.1774,3.55865 1.9531,7.46093 l 0.3399,1.70703 1.5566,0.50977 c 2.8806,0.94218 3.6978,1.51056 4.7109,3.28125 1.1027,1.92723 1.1608,2.85704 0.6231,9.89648 -0.1764,2.31 -0.3223,10.78047 -0.3223,18.82422 l 0,14.625 -10.875,-0.0586 c -5.9812,-0.0321 -18.1661,-0.14795 -27.0761,-0.25781 -8.91,-0.10983 -23.9618,-0.21774 -33.4493,-0.24024 -16.4784,-0.0392 -52.1558,-0.76098 -54.8125,-1.10937 l -1.2617,-0.16602 -0.012,-31.55859 c -0.01,-17.35722 -0.2191,-35.26989 -0.2051,-39.8086 0,0 0.083,-22.1484 0.1113,-29.18164 l -9.7851,0 -0.098,16.50586 c 0.4679,1.03272 0.5242,4.3002 0.6973,39.82618 0.1038,21.28499 0.2918,40.15007 0.418,41.92382 l 0.2304,3.22461 -2.2871,0 -2.2851,0 -0.082,-42.07422 c -0.071,-36.2862 0.3397,-38.35098 0.3497,-42.375 0,-1.11649 -0.01,-14.1242 -0.01,-17.03125 l -10.5039,0 0.012,17.18164 c 9e-4,1.26448 0.3125,16.73546 0.3125,43.09766 l 0.01,41.14844 -2.4746,0.16797 c -1.3615,0.0925 -11.0507,0.26816 -21.5273,0.39062 -25.0732,0.29309 -93.85178,0.30963 -96.14847,0.0234 -0.99,-0.12336 -1.96695,-0.28714 -2.17188,-0.36523 -0.28947,-0.11031 -0.33953,-2.00245 -0.22265,-8.47852 0.0827,-4.58445 0.21171,-13.80188 0.28711,-20.48438 0.0852,-7.54737 0.26664,-12.69195 0.47851,-13.58007 0.45934,-1.92546 1.10108,-2.32032 3.77539,-2.32032 2.91334,0 3.53442,-0.27938 4.1211,-1.85547 0.3938,-1.05792 1.38281,-6.59498 1.38281,-7.74218 0,-0.70815 1.23196,-1.50196 2.33203,-1.50196 2.04525,0 2.95663,1.08924 3.83594,4.58985 0.43774,1.7427 0.60204,2.01 1.4082,2.29101 1.25546,0.43767 3.49952,0.39792 6.52344,-0.11718 1.4025,-0.23892 3.42158,-0.49943 4.48633,-0.57813 4.01254,-0.2967 9.92814,-4.13165 11.53514,-7.47851 1.8045,-3.75831 2.32,-11.31115 1.2344,-18.05664 l -0.5313,-3.30079 -2.2129,-1.94921 c -1.2174,-1.0725 -3.12489,-2.50388 -4.23823,-3.17969 -1.8485,-1.12206 -2.43272,-1.29825 -6.72657,-2.02539 -5.12529,-0.86793 -7.09303,-0.96858 -9.07812,-0.46875 l -1.29492,0.32617 -0.36719,2.29883 c -0.40943,2.57013 -1.27109,4.84338 -2.13477,5.625 -0.82674,0.7482 -2.96038,0.64079 -4.53906,-0.22852 -1.21524,-0.66918 -1.29386,-0.79579 -1.47266,-2.35351 -0.1038,-0.90498 -0.14775,-2.74868 -0.0977,-4.09766 l 0.0918,-2.45313 -2.14843,-0.65234 c -2.96823,-0.90159 -4.22969,-1.60222 -5.21289,-2.89258 l -0.84375,-1.10547 -0.008,-10.07226 c -0.005,-6.15606 -0.15708,-11.41288 -0.39257,-13.52149 -0.21191,-1.8975 -0.44554,-5.34039 -0.51954,-7.65039 -0.074,-2.31 -0.33097,-5.61711 -0.57031,-7.34961 -0.35933,-2.60112 -0.37917,-4.30002 -0.11328,-9.75 0.21144,-4.33335 0.2327,-9.94806 0.0625,-16.34961 -0.41045,-15.43749 -0.31327,-24.99922 0.30078,-29.63476 0.44354,-3.3483 0.47649,-4.52475 0.20508,-7.35156 -0.17767,-1.85055 -0.38007,-9.10078 -0.45117,-16.11328 -0.071,-7.01251 -0.26998,-13.89621 -0.44141,-15.29688 -0.44512,-3.63711 -0.45595,-16.20457 -0.0156,-18.69727 0.2052,-1.16193 0.28187,-2.90675 0.17578,-4.04882 -0.61616,-6.63321 -0.60451,-7.06568 0.21289,-8.03711 0.69469,-0.8256 0.8031,-1.3471 1.24023,-5.98633 0.52761,-5.59944 0.62854,-5.83399 2.52344,-5.83399 0.5737,0 1.89657,-0.14845 2.93945,-0.33007 1.86445,-0.32466 1.89968,-0.3499 2.21094,-1.50586 0.31204,-1.1588 0.86116,-6.34943 0.88086,-8.33008 l 0.01,-1.01758 2.32617,0.20899 c 1.27875,0.11508 2.45825,0.34263 2.62305,0.50585 0.1648,0.16323 0.63808,1.60829 1.05078,3.20899 l 0.75,2.91016 1.80078,0.3789 c 2.90881,0.61224 4.89917,0.33905 12.14648,-1.66211 l 4.04492,-1.11719 2.55469,-2.37695 c 1.99939,-1.86142 2.77935,-2.83801 3.59565,-4.5 0.9701,-1.97508 1.0573,-2.39476 1.2559,-6.02344 0.2427,-4.43497 0.037,-10.82409 -0.4063,-12.58593 -0.4187,-1.66565 -3.03922,-5.91265 -4.4179,-7.15821 -0.6353,-0.57394 -2.08232,-1.48598 -3.21485,-2.02734 -2.37164,-1.13369 -2.88941,-1.16954 -11.27148,-0.76953 l -5.3125,0.2539 -0.47656,1.25 c -0.26234,0.68693 -0.7074,2.78893 -0.98829,4.67188 -0.50495,3.38489 -0.52032,3.42594 -1.41015,3.67578 -1.99769,0.56091 -4.12243,-0.55111 -5.24024,-2.74219 -0.65524,-1.28438 -1.50976,-4.41072 -1.50976,-5.52343 0,-1.34934 -0.627,-2.21497 -2.55078,-3.51954 -2.1413,-1.45208 -3.13976,-2.82118 -4.11328,-5.64648 -0.60102,-1.74419 -0.68003,-2.5491 -0.66993,-6.7793 0.0245,-10.27544 0.27066,-13.91481 1.09766,-16.19922 0.41813,-1.155 1.33382,-3.72117 2.0332,-5.70117 2.67081,-7.56125 6.17511,-14.43974 9.66992,-18.98047 1.10883,-1.44068 3.28049,-4.50836 4.82618,-6.81836 2.84777,-4.25596 4.60702,-6.18245 6.31445,-6.91015 1.13658,-0.48441 6.13299,-5.56979 6.91797,-7.04102 1.10805,-2.07671 2.95623,-4.18653 6.11328,-6.98437 4.86956,-4.3155 12.48916,-10.5132 15.49416,-12.60156 1.475,-1.02517 3.573,-2.67407 4.664,-3.66407 3.4783,-3.15648 5.9422,-5.04657 9.2402,-7.09375 3.0925,-1.91953 6.2894,-4.09326 7.8633,-5.3457 0.4125,-0.32826 2.1,-0.94879 3.75,-1.37891 2.0873,-0.54411 4.1965,-1.40443 6.9336,-2.82812 2.1636,-1.12544 4.7278,-2.2766 5.6992,-2.5586 0.9713,-0.28199 2.7233,-0.96916 3.8926,-1.52734 4.2013,-2.00556 7.8781,-3.02404 15.4981,-4.28906 l 5.1757,-0.85938 1.2012,0.60547 c 0.66,0.33224 2.2569,1.3286 3.5488,2.21485 1.2919,0.88625 2.4732,1.61132 2.625,1.61132 0.3367,0 0.3311,-0.52812 0.4161,40.94922 0.038,18.48 0.1691,36.09789 0.2929,39.15039 0.1866,4.59754 -0.4186,12.40295 -0.5664,16.75 l 10.3203,0 c -0.1499,-21.70892 -0.5276,-101.87583 -0.066,-102.92382 0.3321,-0.7545 0.5028,-0.82618 1.9961,-0.82618 z m 13.7813,0.90235 c 0.1936,6.2e-4 -0.076,0.25997 -0.5977,0.57812 -0.5218,0.31815 -1.0911,0.82502 -1.2656,1.125 -0.1745,0.29999 -0.3262,0.38885 -0.3262,0.19727 -0.011,-0.42112 1.6953,-1.90139 2.1895,-1.90039 z m -26.5645,0.32226 c 0.2115,-0.013 0.4645,0.18484 0.5625,0.43946 0.097,0.25462 0.093,0.54554 -0.01,0.64843 -0.1031,0.10288 -0.1875,-0.0259 -0.1875,-0.28711 0,-0.26125 -0.1687,-0.54375 -0.375,-0.62695 -0.2931,-0.1185 -0.2914,-0.15533 0.01,-0.17383 z m 0.8321,2.25196 c 0.015,0.0229 0.032,0.0891 0.049,0.20312 l 0,0 c 0.073,0.45601 0.071,1.13101 0,1.5 -0.071,0.36898 -0.125,-0.005 -0.125,-0.83008 0,-0.61875 0.034,-0.94185 0.08,-0.87304 z m 23.0937,1.38281 c 0.016,0.0202 0.035,0.0766 0.053,0.16992 l 0,0 c 0.068,0.37317 0.065,0.91239 -0.01,1.19922 -0.075,0.28682 -0.1309,-0.0177 -0.1309,-0.67774 0,-0.495 0.036,-0.7519 0.084,-0.6914 z m 130.7207,109.14062 5.334,0 5.332,0 0.1934,2.47461 c 0.1078,1.36125 0.1544,7.33539 0.1074,13.27539 -0.047,5.94 10e-5,18.90078 0.1055,28.80078 0.1243,11.66655 0.087,18.42144 -0.1075,19.19922 -0.1652,0.66 -0.6333,1.63953 -1.039,2.17578 l -0.7363,0.97461 -4.5918,0 -4.5918,0 -0.2071,-2.17578 c -0.3478,-3.67518 -0.778,-18.58422 -0.5468,-18.93945 0.1198,-0.1841 0.2291,-8.97516 0.2441,-19.53516 0.015,-10.56 0.1344,-20.78586 0.2656,-22.72461 l 0.2383,-3.52539 z m -282.4746,0.49414 c 0.83195,-0.0232 1.52171,0.007 1.89648,0.10743 1.51672,0.40841 1.66282,0.73307 2.23633,4.99609 0.83232,6.18694 1.13658,12.99908 0.78125,17.52148 -0.18487,2.35342 -0.24951,6.54334 -0.14648,9.64649 0.10017,3.01717 0.0552,7.23976 -0.10157,9.38476 -0.16501,2.25937 -0.17793,4.78342 -0.0293,6 0.14112,1.155 0.2841,4.59789 0.3164,7.65039 0.0607,5.74167 -0.0794,6.76071 -1.32422,9.67383 l -0.60937,1.42578 -3.99024,0 -3.99218,0 -0.59961,-1.60156 c -1.3607,-3.63684 -1.55531,-6.36497 -1.40821,-19.69922 0.0755,-6.8475 0.2345,-14.20461 0.35352,-16.34961 0.30354,-5.47016 0.16475,-18.65862 -0.23047,-21.96289 -0.31895,-2.66663 -0.20071,-4.91981 0.29883,-5.7207 0.28957,-0.46425 4.05295,-1.00275 6.54883,-1.07227 z m 252.2148,25.63672 c 2.5248,-0.0832 5.3531,1.48299 6.6661,4.30274 1.332,2.86039 0.5661,6.24325 -1.6817,7.41992 -1.0914,0.57134 -3.9469,0.71111 -5.4062,0.26562 -1.9773,-0.60367 -3.2467,-1.52158 -3.8477,-2.7832 -1.2418,-2.60634 -1.0976,-4.92288 0.4473,-7.1875 0.9028,-1.32343 2.3074,-1.96764 3.8222,-2.01758 z m -220.70113,0.29688 c 0.58113,-0.0494 1.28209,0.0288 2.41211,0.21094 1.18308,0.19064 1.84217,0.50863 2.61914,1.26171 1.35719,1.31544 1.73573,2.56412 1.59961,5.25977 -0.13202,2.61433 -0.67786,3.55354 -2.65625,4.56445 -2.81763,1.43974 -5.97408,0.5419 -7.50391,-2.13672 -1.9897,-3.48384 -1.23257,-7.03617 1.83203,-8.59961 0.65453,-0.33391 1.11614,-0.5111 1.69727,-0.56054 z m 96.84963,54.45703 0.027,37.46875 c 3.4609,-2.73611 6.9786,-5.43739 10.5235,-8.1211 -0.01,-7.68643 -0.014,-13.94223 -0.022,-21.41601 -3.5483,-2.64833 -7.0681,-5.28961 -10.5293,-7.93164 z m 23.9336,2.07617 c -3.1328,2.37795 -6.2943,4.75811 -9.4903,7.14453 l -0.1113,18.75195 c 3.1975,2.41284 6.3611,4.84663 9.4961,7.29883 0.036,-11.18138 0.073,-22.0202 0.1055,-33.19531 z m 149.0371,47.32031 c 0.906,-0.009 1.8623,0.0433 3.0019,0.1543 2.0648,0.20133 5.2319,0.20676 9.3496,0.0176 6.6899,-0.30738 16.5319,0.0514 17.1036,0.62305 0.6505,0.65048 0.91,8.56729 0.5097,15.51562 -0.2103,3.65301 -0.2784,6.80955 -0.1523,7.01367 0.277,0.44817 0.3899,76.82723 0.1308,88.49414 -0.1792,8.06748 -0.1697,8.26567 0.4414,8.94922 0.6031,0.67515 0.6248,0.98739 0.5938,9.15039 -0.08,21.21921 -0.442,85.38083 -0.502,89.15039 -0.037,2.31 -0.014,9.60117 0.049,16.20117 0.063,6.6 -0.01,12.675 -0.1524,13.5 l 0,-0.002 c -0.2345,1.31763 -0.3631,1.51275 -1.0606,1.59375 -0.7655,0.0888 -0.7979,0.0292 -0.9258,-1.65039 -0.073,-0.9582 -0.1565,-6.3993 -0.1855,-12.0918 -0.029,-5.6925 -0.1368,-11.05953 -0.2383,-11.92578 l -0.1836,-1.57422 -3.0351,0 c -1.6685,-7.5e-4 -4.5695,-0.091 -6.4473,-0.19921 l -3.4141,-0.19727 0.2207,-13.55273 0.2207,-13.55469 -4.1289,-0.19727 c -2.2707,-0.10891 -6.8411,-0.20117 -10.1562,-0.20117 l -6.0274,-0.002 -0.7109,-1.24219 c -0.3903,-0.68325 -0.8366,-2.13342 -0.9922,-3.22266 -0.163,-1.14201 -0.3314,-21.66599 -0.3984,-48.48047 -0.1025,-41.11362 -0.1718,-46.79616 -0.5977,-49.05078 -0.6918,-3.66192 -1.2243,-38.81124 -0.7617,-50.25 0.2118,-5.23377 0.2296,-9.37311 0.051,-11.69922 -0.1633,-2.12811 -0.174,-7.70937 -0.025,-13.65039 0.1383,-5.5275 0.2576,-11.55143 0.2676,-13.38671 l 0.018,-3.3379 1.4257,-0.1621 c 0.7837,-0.0897 2.5881,-0.32547 4.0098,-0.52344 0.9435,-0.13138 1.7991,-0.20015 2.7051,-0.20899 z m -349.24025,1.70508 19.70898,0.17578 c 10.83967,0.0966 19.81639,0.24212 19.94922,0.32422 0.339,0.20952 0.27794,27.18417 -0.0703,31.01367 -0.61668,6.78141 -0.65767,10.59258 -0.16992,15.83985 0.26769,2.87988 0.48242,8.06689 0.48242,11.65429 0,4.69425 0.17233,7.91395 0.63086,11.75977 0.83404,6.99537 0.69652,11.43988 -0.46289,15.00391 -1.02121,3.13917 -1.05134,5.92515 -0.11914,10.63671 0.66022,3.33711 0.66396,3.51315 0.60156,32.30665 -0.0345,15.9225 -0.14163,30.0296 -0.23633,31.3496 -0.0992,1.38171 0.0449,4.74007 0.33984,7.91602 0.40067,4.31544 0.48269,7.54827 0.37696,14.84961 -0.0825,5.69655 -0.26076,9.63947 -0.45899,10.11719 -0.29779,0.71766 -0.54723,0.8112 -2.99414,1.125 -1.48286,0.19017 -6.71143,0.34179 -11.76758,0.34179 l -9.10156,0 0.19922,3.22461 c 0.10921,1.77375 0.28627,7.75891 0.39258,13.30078 l 0.19336,10.07618 -4.59571,0.19922 c -2.52689,0.10936 -5.77546,0.19921 -7.21875,0.19921 l -2.62304,0 -0.16797,1.42579 c -0.0919,0.78375 -0.24264,6.21671 -0.33594,12.07421 -0.0933,5.8575 -0.2485,11.62797 -0.3457,12.82422 -0.14371,1.76823 -0.26981,2.16596 -0.66797,2.12696 -0.26936,-0.0264 -0.9456,-0.10368 -1.50391,-0.17188 l -1.01562,-0.12305 0.20508,-43.85351 c 0.11311,-24.11916 0.33247,-70.17852 0.48632,-102.35352 0.15384,-32.175 0.28216,-68.59393 0.28516,-80.93164 l 0.004,-22.43164 z m 44.22656,91.4375 2.18359,0.16406 c 2.53277,0.19155 5.23568,1.28778 5.82032,2.35938 0.29845,0.54702 0.40758,5.43878 0.49218,22.00391 0.0598,11.71499 0.13402,25.03484 0.16602,29.60156 0.0672,9.57819 0.12313,9.36528 -2.80469,10.79883 -1.96203,0.96066 -4.61153,1.32063 -5.67773,0.77148 -1.84769,-0.95163 -2.70387,-3.68828 -2.22852,-7.12109 0.1516,-1.09518 0.16198,-3.13675 0.0234,-4.65235 -0.1358,-1.485 -0.15855,-5.1975 -0.0508,-8.25 0.24518,-6.95535 0.24458,-9.4422 0.004,-26.84961 -0.10718,-7.755 -0.10976,-14.67851 -0.006,-15.38672 0.12146,-0.82788 0.52751,-1.67163 1.13477,-2.36328 l 0.94336,-1.07617 z m 291.02929,0.86328 c 1.5752,-0.0243 3.1519,0.0849 3.7793,0.34375 0.9753,0.40236 1.0425,0.71741 1.4981,6.96875 0.2789,3.82335 0.2809,6.62367 0.01,12.30078 -0.2312,4.83375 -0.2535,8.00077 -0.066,9.25 0.1795,1.21341 0.1769,2.5134 -0.01,3.59961 -0.1845,1.07481 -0.1968,4.18469 -0.031,8.45118 0.3652,9.40575 -0.025,22.92598 -0.6934,24.00781 -0.1767,0.28579 -6.6757,0.35653 -7.7187,0.084 -0.3447,-0.0901 -0.5254,-0.43031 -0.5254,-0.99023 0,-0.63642 -0.3043,-1.09209 -1.1992,-1.80078 l -1.1973,-0.95118 0.016,-26.5996 c 0.016,-25.52281 0.096,-28.19535 0.9453,-32.11524 0.309,-1.42554 0.4742,-1.66858 1.418,-2.08789 0.6261,-0.27816 2.2002,-0.43667 3.7754,-0.46094 z m -35.8476,25.76367 2.6718,0 c 2.4355,0 2.7429,0.0662 3.4746,0.75 1.2787,1.19475 1.7513,2.37606 1.7383,4.34961 -0.011,1.7154 -0.7102,4.37283 -1.3613,5.17579 -0.6326,0.78008 -6.7516,0.21731 -8.582,-0.78907 -0.679,-0.37314 -0.6977,-0.4902 -0.5997,-3.6582 l 0.1,-3.27149 1.2793,-1.27929 1.2793,-1.27735 z m -217.59575,1.04883 2.82031,0 0.79883,1.72657 c 0.57532,1.24451 0.79864,2.22479 0.80664,3.52343 0.0151,2.4837 -0.29579,3.37199 -1.42188,4.0586 -0.77857,0.47469 -1.46242,0.58168 -3.51562,0.55078 -1.4025,-0.0211 -3.02211,-0.12063 -3.59961,-0.22266 l -1.05078,-0.18555 -0.0957,-2.8496 c -0.053,-1.56751 0.0546,-3.54915 0.24024,-4.40235 0.42128,-1.93593 1.02187,-2.19922 5.01758,-2.19922 z m 154.84965,78.90039 28.9433,0 28.9414,0 0.7403,0.88086 c 0.6814,0.80997 0.7443,1.13832 0.7753,4.125 0.019,1.78473 0.1226,6.85337 0.2305,11.26367 0.171,6.99213 0.2563,8.03665 0.6758,8.15821 0.8828,0.25584 7.0259,0.74411 11.957,0.95117 l 4.875,0.20508 0,13.75781 0,13.75781 1.2754,0.0254 c 0.7013,0.0131 3.7038,0.18189 6.6738,0.375 l 5.4004,0.34961 0.078,12.82617 0.5664,15.41602 c 3.4771,-0.008 13.8289,-0.0859 14.3203,0.42969 0.2159,0.2265 0.4554,8.62733 0.2773,9.72461 -0.094,0.57966 -0.2553,1.02518 -0.3574,0.98828 -0.1022,-0.0369 -2.3647,-0.1086 -5.0293,-0.1582 l -4.8457,-0.0898 -1.9531,-3.51758 c -2,-3.60042 -4.7946,-10.15033 -4.9922,-10.64257 -2.1925,-4.08623 -4.0206,-7.7008 -6.5488,-11.80274 -0.8161,-1.00437 -2.3329,-3.09531 -3.3692,-4.64844 -1.0362,-1.55313 -2.6261,-3.76883 -3.5351,-4.92382 -2.7662,-3.51501 -23.5436,-23.97689 -26.7618,-26.35547 -1.5675,-1.15854 -4.0172,-3.20956 -5.4453,-4.5586 -1.4282,-1.34904 -3.4532,-2.93393 -4.5,-3.52148 -1.0469,-0.58755 -3.8243,-2.4619 -6.1699,-4.16602 -5.3416,-3.88056 -8.6082,-5.98804 -12.918,-8.33203 -4.2994,-2.33835 -14.6134,-7.10517 -17.166,-7.93359 -1.8267,-0.59286 -1.9569,-0.69603 -2.0449,-1.60938 l -0.094,-0.97461 z m -109.5879,0.91602 c 10.7867,-0.003 15.1047,0.077 14.9941,0.25586 -0.112,0.18114 -0.3667,0.32812 -0.5664,0.32812 -0.7442,0 -8.6547,3.89386 -14.6016,7.1875 -6.6296,3.67173 -10.5841,6.22842 -17.4004,11.24805 -2.3925,1.76187 -5.2184,3.83613 -6.2793,4.60937 -2.5756,1.87717 -10.85747,8.6395 -14.49409,11.83594 -7.42126,6.52299 -14.50219,13.66034 -21.5957,21.76367 -3.18374,3.63695 -9.42757,13.82573 -12.27344,20.0293 l 0,0.002 c -0.97816,2.13247 -1.91385,4.29435 -3.12109,6.31055 -0.45898,0.8052 -1.83462,2.88078 -3.05665,4.61328 -1.22204,1.7325 -2.31351,3.30668 -2.42578,3.4961 -0.13741,0.23187 -1.93265,0.37821 -5.49414,0.44921 l -5.29297,0.10547 -0.13281,-4.80078 c -0.0739,-2.64 -0.0865,-4.85894 -0.0273,-4.93164 0.0592,-0.0727 3.96743,-0.19107 8.68554,-0.26367 l 5.25391,-0.0762 0.0606,-2.07813 0.0996,-7.42578 c 0.055,-4.08375 0.18119,-10.27297 0.27929,-13.7539 l 0.17774,-6.32813 5.14258,-0.19531 c 2.82885,-0.10732 6.71046,-0.19727 8.625,-0.19727 l 3.48047,0 0.19921,-2.32422 c 0.10927,-1.27875 0.11265,-6.30828 0.008,-11.17578 -0.12152,-5.64213 -0.0762,-9.64732 0.125,-11.05273 0.17359,-1.21248 0.35961,-2.24783 0.41211,-2.29883 0.0525,-0.051 3.57534,-0.35785 7.83007,-0.68164 4.25474,-0.32376 7.83342,-0.68502 7.95118,-0.80273 0.11777,-0.11772 0.26036,-5.11733 0.31835,-11.11133 l 0.10547,-10.89844 0.89063,-0.85156 0.88867,-0.85157 28.21485,-0.10546 c 5.1087,-0.0189 9.424,-0.0282 13.0196,-0.0293 z"
       id="path3417"
       inkscape:connector-curvature="0" />
    <path
       style="opacity:1;fill:none;fill-opacity:1;stroke:#ff0000;stroke-width:0.5;stroke-miterlimit:4;stroke-dasharray:none;stroke-dashoffset:200;stroke-opacity:1"
       d="m 204.05081,274.54474 c 0,0 236.3757,179.80716 381.83767,388.90873"
       id="path3419"
       inkscape:connector-curvature="0" />
    <path
       style="opacity:1;fill:none;fill-opacity:1;stroke:#ff0000;stroke-width:0.5;stroke-miterlimit:4;stroke-dasharray:none;stroke-dashoffset:200;stroke-opacity:1"
       d="m 203.04066,390.71229 c 0,0 95.96449,144.45181 301.02546,326.27927"
       id="path3421"
       inkscape:connector-curvature="0" />
    <path
       style="opacity:1;fill:none;fill-opacity:1;stroke:#ff0000;stroke-width:0.5;stroke-miterlimit:4;stroke-dasharray:none;stroke-dashoffset:200;stroke-opacity:1"
       d="m 204.05081,536.17425 c 0,0 72.73099,122.22846 143.44167,179.80716"
       id="path3423"
       inkscape:connector-curvature="0" />
    <path
       style="opacity:1;fill:none;fill-opacity:1;stroke:#ff0000;stroke-width:0.5;stroke-miterlimit:4;stroke-dasharray:none;stroke-dashoffset:200;stroke-opacity:1"
       d="m 205.06097,657.39256 c 0,0 48.48732,59.599 55.55839,60.60915"
       id="path3425"
       inkscape:connector-curvature="0" />
    <path
       style="opacity:1;fill:none;fill-opacity:1;stroke:#ff0000;stroke-width:0.5;stroke-miterlimit:4;stroke-dasharray:none;stroke-dashoffset:200;stroke-opacity:1"
       d="m 285.87317,716.99156 c 0,0 274.76149,-266.68027 300.01531,-332.34019"
       id="path3427"
       inkscape:connector-curvature="0" />
    <image
       sodipodi:absref="/Users/xavid/Downloads/13death_web.jpg"
       y="147.52954"
       x="-245.8145"
       id="image3456"
       xlink:href="file:///Users/xavid/Downloads/13death_web.jpg"
       preserveAspectRatio="none"
       height="450"
       width="299.70001" />
    <path
       style="opacity:1;fill:none;fill-opacity:1;stroke:#ff0000;stroke-width:0.5;stroke-miterlimit:4;stroke-dasharray:none;stroke-dashoffset:200;stroke-opacity:1"
       d="M -201.02036,217.9762 C -143.10991,253.90717 -2.2728435,400.94979 9.0913729,433.13869"
       id="path3461"
       inkscape:connector-curvature="0"
       sodipodi:nodetypes="cc" />
    <path
       style="opacity:1;fill:none;fill-opacity:1;stroke:#ff0000;stroke-width:0.5;stroke-miterlimit:4;stroke-dasharray:none;stroke-dashoffset:200;stroke-opacity:1"
       d="m -202.03051,279.59551 c 0,0 81.82236,112.12693 174.251315,183.34268"
       id="path3463"
       inkscape:connector-curvature="0" />
    <path
       style="opacity:1;fill:none;fill-opacity:1;stroke:#ff0000;stroke-width:0.5;stroke-miterlimit:4;stroke-dasharray:none;stroke-dashoffset:200;stroke-opacity:1"
       d="m -203.04066,356.3671 c 0,0 52.02285,77.78175 82.32743,107.58125"
       id="path3465"
       inkscape:connector-curvature="0" />
    <path
       style="opacity:1;fill:none;fill-opacity:1;stroke:#ff0000;stroke-width:0.5;stroke-miterlimit:4;stroke-dasharray:none;stroke-dashoffset:200;stroke-opacity:1"
       d="m -201.42857,420.57649 c 0,0 45,65.71429 47.85714,67.14286"
       id="path3467"
       inkscape:connector-curvature="0" />
    <path
       style="opacity:1;fill:none;fill-opacity:1;stroke:#ff0000;stroke-width:0.5;stroke-miterlimit:4;stroke-dasharray:none;stroke-dashoffset:200;stroke-opacity:1"
       d="m -201.42857,455.57649 37.5,43.57143"
       id="path3469"
       inkscape:connector-curvature="0" />
    <path
       style="opacity:1;fill:none;fill-opacity:1;stroke:#ff0000;stroke-width:0.5;stroke-miterlimit:4;stroke-dasharray:none;stroke-dashoffset:200;stroke-opacity:1"
       d="M -165.35714,464.14791 C -138.92857,445.21934 -9.2857143,318.43363 9.6428572,278.07649"
       id="path3471"
       inkscape:connector-curvature="0"
       sodipodi:nodetypes="cc" />
    <path
       style="opacity:1;fill:none;fill-opacity:1;stroke:#ff0000;stroke-width:0.5;stroke-miterlimit:4;stroke-dasharray:none;stroke-dashoffset:200;stroke-opacity:1"
       d="M -201.38524,432.62218 C -194.92385,411.10259 -54.013953,258.97025 9.6428572,215.21935"
       id="path3473"
       inkscape:connector-curvature="0"
       sodipodi:nodetypes="cc" />
    <path
       style="opacity:1;fill:none;fill-opacity:1;stroke:#ff0000;stroke-width:0.5;stroke-miterlimit:4;stroke-dasharray:none;stroke-dashoffset:200;stroke-opacity:1"
       d="m -201.78571,289.8622 c 0,0 41.78571,-67.85714 78.57142,-94.28571"
       id="path3475"
       inkscape:connector-curvature="0" />
    <path
       style="opacity:1;fill:none;fill-opacity:1;stroke:#ff0000;stroke-width:0.5;stroke-miterlimit:4;stroke-dasharray:none;stroke-dashoffset:200;stroke-opacity:1"
       d="m -202.5,255.57649 50,-60.71429"
       id="path3477"
       inkscape:connector-curvature="0" />
    <path
       style="opacity:1;fill:none;fill-opacity:1;stroke:#ff0000;stroke-width:0.5;stroke-miterlimit:4;stroke-dasharray:none;stroke-dashoffset:200;stroke-opacity:1"
       d="m 8.9285714,290.57649 c 0,0 -47.1428574,-74.28572 -77.8571434,-95.71429"
       id="path3479"
       inkscape:connector-curvature="0" />
    <path
       style="opacity:1;fill:none;fill-opacity:1;stroke:#ff0000;stroke-width:0.5;stroke-miterlimit:4;stroke-dasharray:none;stroke-dashoffset:200;stroke-opacity:1"
       d="m 9.6428572,256.29077 c 0,0 -37.5000002,-49.28571 -55.0000002,-63.92857"
       id="path3481"
       inkscape:connector-curvature="0" />
    <path
       style="opacity:1;fill:none;fill-opacity:1;stroke:#ff0000;stroke-width:0.5;stroke-miterlimit:4;stroke-dasharray:none;stroke-dashoffset:200;stroke-opacity:1"
       d="m 8.9285714,355.93363 c 0,0 -69.2857144,-113.92857 -115.0000014,-136.78571"
       id="path3483"
       inkscape:connector-curvature="0" />
    <path
       style="opacity:1;fill:none;fill-opacity:1;stroke:#ff0000;stroke-width:0.5;stroke-miterlimit:4;stroke-dasharray:none;stroke-dashoffset:200;stroke-opacity:1"
       d="m -203.57143,356.64792 c 0,0 69.28572,-107.14286 118.57143,-140"
       id="path3485"
       inkscape:connector-curvature="0" />
    <path
       style="opacity:1;fill:none;fill-opacity:1;stroke:#ff0000;stroke-width:0.5;stroke-miterlimit:4;stroke-dasharray:none;stroke-dashoffset:200;stroke-opacity:1"
       d="m -38.928571,487.71935 c 0,0 43.928571,-65.35715 48.5714282,-69.64286"
       id="path3487"
       inkscape:connector-curvature="0" />
    <path
       style="opacity:1;fill:none;fill-opacity:1;stroke:#ff0000;stroke-width:0.5;stroke-miterlimit:4;stroke-dasharray:none;stroke-dashoffset:200;stroke-opacity:1"
       d="m -28.214286,498.79078 c 0,0 11.071429,-18.57143 37.1428574,-43.21429"
       id="path3491"
       inkscape:connector-curvature="0" />
    <path
       style="opacity:1;fill:none;fill-opacity:1;stroke:#ff0000;stroke-width:0.5;stroke-miterlimit:4;stroke-dasharray:none;stroke-dashoffset:200;stroke-opacity:1"
       d="m -75.714286,466.29078 c 0,0 74.6428574,-79.28572 85.3571432,-111.78572"
       id="path3493"
       inkscape:connector-curvature="0" />
    <path
       id="path3493-3"
       style="opacity:1;fill:#0000ff;fill-opacity:1;fill-rule:evenodd;stroke:#ff0000;stroke-width:0.5;stroke-miterlimit:4;stroke-dasharray:none;stroke-dashoffset:200;stroke-opacity:1"
       d="m -371.20876,374.33814 c -63.65681,43.7509 -189.9195,178.20557 -220.14114,230.14268 0,0 88.66796,100.32688 115.94208,142.24821 27.77919,-43.94164 82.4641,-113.95688 109.87962,-138.45443 -5.97951,-42.1451 -158.43333,-195.24864 -216.34378,-231.17961 99.50003,-212.13203 210.66322,-2.75685 210.66322,-2.75685 z m 41.05911,143.40029 c -32.32488,-59.599 -108.61423,-172.12837 -146.7734,-182.84573 -59.38288,33.09917 -107.55602,114.2906 -147.96212,182.47589 0,0 140.13291,204.3075 148.28863,211.79698 4.04061,-5.55584 142.66625,-206.7785 146.44689,-211.42714 z m -78.48116,104.31855 c -92.42896,-71.21575 -183.3249,-193.58442 -183.82998,-196.1098 l 59.59502,-71.94516 c 87.11132,28.43401 137.70921,129.73567 161.29987,160.33611 -10.35715,31.78572 -97.40356,128.54606 -107.49948,130.90023 -38.88527,-30.98087 -105.09228,-129.61206 -105.09228,-129.61206 71.21575,-106.57109 110.43658,-141.85271 157.82544,-163.87174 17.62346,14.36929 62.19453,72.78009 62.19453,72.78009 -21.45395,50.49239 -155.6425,179.80348 -182.07107,198.73205 0,0 63.33174,345.2726 137.57795,-1.20972 z"
       inkscape:connector-curvature="0"
       sodipodi:nodetypes="ccccccccccccccccccccc" />
    <g
       id="g4681"
       transform="translate(0.14379639,0)">
      <path
         inkscape:connector-curvature="0"
         id="path3814"
         d="m 1007.0107,627.86565 14.0001,0 164.5247,0 0.035,-6.82081 c 0.1807,-34.25201 -10.6792,-60.64124 -26.7905,-81.85786 -14.156,-18.64186 -32.1864,-33.3594 -50.3385,-47.11627 18.0824,-13.49232 36.0276,-27.18147 50.2087,-43.93823 16.1632,-19.09899 27.2481,-42.5214 27.0649,-72.74824 l -0.042,-6.81547 -177.5475,0 1e-4,0 -0.04,6.81547 c -0.1831,30.22276 10.8892,53.5856 27.0221,72.60494 14.2814,16.83643 32.3734,30.53814 50.5555,44.08153 -18.3967,13.91781 -36.7189,28.75781 -51.118,47.52742 -16.2275,21.15304 -27.2484,47.40379 -27.2484,81.41054 z m 15.0501,-245.58292 149.6777,0 c -1.3346,23.4342 -10.1826,41.18634 -23.5575,56.99059 -13.6047,16.07579 -32.0122,29.91719 -51.126,44.18331 -19.2355,-14.34087 -37.7974,-28.19754 -51.4889,-44.33866 -13.3412,-15.72808 -22.1729,-33.41302 -23.5053,-56.83524 z m 74.9915,118.36054 c 18.9499,14.26554 37.2083,28.93116 50.8059,46.83772 13.5422,17.83342 22.6023,38.80439 23.7691,66.6707 l -150.3473,0 c 1.3313,-27.58875 10.5057,-48.4244 24.1468,-66.20599 13.8401,-18.04103 32.4082,-32.85077 51.6255,-47.30243 z"
         style="color:#000000;font-style:normal;font-variant:normal;font-weight:normal;font-stretch:normal;font-size:medium;line-height:normal;font-family:sans-serif;text-indent:0;text-align:start;text-decoration:none;text-decoration-line:none;text-decoration-style:solid;text-decoration-color:#000000;letter-spacing:normal;word-spacing:normal;text-transform:none;direction:ltr;block-progression:tb;writing-mode:lr-tb;baseline-shift:baseline;text-anchor:start;white-space:normal;clip-rule:nonzero;display:inline;overflow:visible;visibility:visible;opacity:1;isolation:auto;mix-blend-mode:normal;color-interpolation:sRGB;color-interpolation-filters:linearRGB;solid-color:#000000;solid-opacity:1;fill:#000000;fill-opacity:1;fill-rule:nonzero;stroke:none;stroke-width:20;stroke-linecap:butt;stroke-linejoin:miter;stroke-miterlimit:4;stroke-dasharray:none;stroke-dashoffset:0;stroke-opacity:1;color-rendering:auto;image-rendering:auto;shape-rendering:auto;text-rendering:auto;enable-background:accumulate"
         sodipodi:nodetypes="ccccscscccccscsccccscsccsccsc" />
      <path
         d="m 1047.0875,443.53598 c 42.9446,16.62406 56.7984,15.23827 102.5118,-0.69269 l -52.6424,49.17893 z"
         inkscape:connector-curvature="0"
         style="fill:#000000;fill-opacity:1"
         sodipodi:nodetypes="cccc"
         id="path4324" />
      <path
         d="m 1019.3853,598.00312 c 77.5798,-64.41719 77.5798,-64.41719 154.4603,0 l 5.5412,23.55029 -164.8554,0 z"
         inkscape:connector-curvature="0"
         style="fill:#000000;fill-opacity:1"
         sodipodi:nodetypes="ccccc"
         id="path4326" />
    </g>
    <path
       inkscape:connector-curvature="0"
       id="path4763"
       d="m 896.48633,219.88281 c 0,0 90.00969,0.0389 200.02147,0.0859 l 200.0215,0.0859 -0.1895,302.31445 c -0.1034,166.27305 -0.247,302.38234 -0.3203,302.46484 -0.073,0.0825 -13.857,0.1973 -30.6308,0.25586 -22.4248,0.0783 -30.9109,0.0142 -32.0567,-0.24218 l -1.5586,-0.34766 -3.0683,-6.05664 c -3.2561,-6.42483 -4.2115,-8.12638 -8.7129,-15.50977 -4.6266,-7.58874 -9.0982,-14.02503 -13.1309,-18.90039 -5.7611,-6.96483 -18.3637,-19.72312 -24.4746,-24.77734 -21.2848,-17.60415 -46.611,-28.37161 -73.8008,-31.375 -5.4913,-0.60657 -20.5016,-0.51963 -25.9218,0.15039 -23.8039,2.94261 -46.7157,12.23586 -66.0684,26.79687 -4.2047,3.16363 -6.8616,5.46763 -13.8359,12 -12.23235,11.45727 -21.11372,22.31714 -28.91605,35.35547 -1.7773,2.97 -4.10113,6.8079 -5.16406,8.5293 -1.06293,1.72143 -2.61093,4.54875 -3.43946,6.2832 -0.82854,1.73448 -2.08769,4.18616 -2.79687,5.44727 l -1.28906,2.29297 -9.95703,0.19922 c -9.30996,0.18579 -33.68838,0.1711 -48.17383,-0.0274 l -6.36328,-0.0859 -0.0879,-302.46875 c -0.048,-166.35798 -0.0859,-302.47071 -0.0859,-302.47071 z"
       style="opacity:0.3;fill:#2d1d55;fill-opacity:1;fill-rule:evenodd;stroke:none;stroke-width:0.5;stroke-miterlimit:4;stroke-dasharray:none;stroke-dashoffset:200;stroke-opacity:1;filter:url(#filter4765)"
       sodipodi:nodetypes="cscscscccsssssssssscccccscc" />
    <path
       style="opacity:1;fill:#ffffff;fill-opacity:1;fill-rule:evenodd;stroke:none;stroke-width:0.5;stroke-miterlimit:4;stroke-dasharray:none;stroke-dashoffset:200;stroke-opacity:1"
       d="m 832.35156,183.0918 0,678.82226 528.31054,0 0,-678.82226 -528.31054,0 z m 64.13477,36.79101 c 0,0 90.00969,0.0389 200.02147,0.0859 l 200.0215,0.0859 -0.1895,302.31445 c -0.1034,166.27305 -0.247,302.38234 -0.3203,302.46484 -0.073,0.0825 -13.857,0.1973 -30.6308,0.25586 -22.4248,0.0783 -30.9109,0.0142 -32.0567,-0.24218 l -1.5586,-0.34766 -3.0683,-6.05664 c -3.2561,-6.42483 -4.2115,-8.12638 -8.7129,-15.50977 -4.6266,-7.58874 -9.0982,-14.02503 -13.1309,-18.90039 -5.7611,-6.96483 -18.3637,-19.72312 -24.4746,-24.77734 -21.2848,-17.60415 -46.611,-28.37161 -73.8008,-31.375 -5.4913,-0.60657 -20.5016,-0.51963 -25.9218,0.15039 -23.8039,2.94261 -46.7157,12.23586 -66.0684,26.79687 -4.2047,3.16363 -6.8616,5.46763 -13.8359,12 -12.23235,11.45727 -21.11372,22.31714 -28.91605,35.35547 -1.7773,2.97 -4.10113,6.8079 -5.16406,8.5293 -1.06293,1.72143 -2.61093,4.54875 -3.43946,6.2832 -0.82854,1.73448 -2.08769,4.18616 -2.79687,5.44727 l -1.28906,2.29297 -9.95703,0.19922 c -9.30996,0.18579 -33.68838,0.1711 -48.17383,-0.0274 l -6.36328,-0.0859 -0.0879,-302.46875 c -0.048,-166.35798 -0.0859,-302.47071 -0.0859,-302.47071 z"
       id="rect4426"
       inkscape:connector-curvature="0" />
  </g>
</svg>
